<svg width="22" height="22" viewBox="0 0 22 22" fill="none" xmlns="http://www.w3.org/2000/svg">
<path fill-rule="evenodd" clip-rule="evenodd" d="M10.9998 3.2998C11.2915 3.2998 11.5713 3.4157 11.7776 3.62199C11.9839 3.82828 12.0998 4.10807 12.0998 4.3998V9.89981H17.5998C17.8915 9.89981 18.1713 10.0157 18.3776 10.222C18.5839 10.4283 18.6998 10.7081 18.6998 10.9998C18.6998 11.2915 18.5839 11.5713 18.3776 11.7776C18.1713 11.9839 17.8915 12.0998 17.5998 12.0998H12.0998V17.5998C12.0998 17.8915 11.9839 18.1713 11.7776 18.3776C11.5713 18.5839 11.2915 18.6998 10.9998 18.6998C10.7081 18.6998 10.4283 18.5839 10.222 18.3776C10.0157 18.1713 9.89981 17.8915 9.89981 17.5998V12.0998H4.3998C4.10807 12.0998 3.82828 11.9839 3.62199 11.7776C3.4157 11.5713 3.2998 11.2915 3.2998 10.9998C3.2998 10.7081 3.4157 10.4283 3.62199 10.222C3.82828 10.0157 4.10807 9.89981 4.3998 9.89981H9.89981V4.3998C9.89981 4.10807 10.0157 3.82828 10.222 3.62199C10.4283 3.4157 10.7081 3.2998 10.9998 3.2998Z" fill="white"/>
</svg>
